<svg width="198" height="198" viewBox="0 0 198 198" fill="none" xmlns="http://www.w3.org/2000/svg">
<rect width="198" height="198" rx="4" fill="#F6F7FB"/>
<path d="M29.5356 128V123.152H31.7756L35.1516 128H37.2156L33.2156 122.256L36.9276 116.8H34.8636L31.7436 121.472H29.5356V116.8H27.7116V128H29.5356ZM37.2248 124.16C37.2248 126.816 39.2408 128.208 41.3848 128.208C43.5448 128.208 45.5448 126.816 45.5448 124.16C45.5448 121.504 43.5448 120.112 41.3848 120.112C39.2408 120.112 37.2248 121.504 37.2248 124.16ZM43.8008 124.16C43.8008 125.664 42.8088 126.64 41.3848 126.64C39.9448 126.64 38.9528 125.664 38.9528 124.16C38.9528 122.656 39.9448 121.68 41.3848 121.68C42.8088 121.68 43.8008 122.656 43.8008 124.16ZM48.9168 128V124.912H52.7568V128H54.4688V120.32H52.7568V123.408H48.9168V120.32H47.2048V128H48.9168ZM60.1791 128V121.824H62.8191V120.32H55.8111V121.824H58.4671V128H60.1791ZM65.6779 121.52V120.32H64.1579V131.52H65.8699V127.008C66.3979 127.616 67.2939 128.208 68.6379 128.208C70.9419 128.208 72.4459 126.368 72.4459 124.16C72.4459 121.952 70.9419 120.112 68.6379 120.112C67.1979 120.112 66.2859 120.784 65.6779 121.52ZM70.7019 124.16C70.7019 125.664 69.7099 126.704 68.3179 126.704C67.1339 126.704 66.2379 125.936 65.8699 125.088V123.216C66.2379 122.384 67.1339 121.616 68.3179 121.616C69.7099 121.616 70.7019 122.656 70.7019 124.16ZM73.6311 124.16C73.6311 126.816 75.6471 128.208 77.7911 128.208C79.9511 128.208 81.9511 126.816 81.9511 124.16C81.9511 121.504 79.9511 120.112 77.7911 120.112C75.6471 120.112 73.6311 121.504 73.6311 124.16ZM80.2071 124.16C80.2071 125.664 79.2151 126.64 77.7911 126.64C76.3511 126.64 75.3591 125.664 75.3591 124.16C75.3591 122.656 76.3511 121.68 77.7911 121.68C79.2151 121.68 80.2071 122.656 80.2071 124.16ZM86.5108 121.776H89.1028V128H90.8148V120.32H84.8948C84.7508 124.128 84.3988 126.688 83.1028 126.688C82.9428 126.688 82.7828 126.656 82.6068 126.592V127.936C82.9908 128.08 83.3428 128.144 83.6628 128.144C85.7108 128.144 86.2868 125.488 86.5108 121.776ZM96.7628 128C98.6988 128 99.8028 126.88 99.8028 125.44C99.8028 123.984 98.6988 122.88 96.7628 122.88H94.6668V120.32H92.9548V128H96.7628ZM94.6668 124.224H96.4268C97.4348 124.224 98.0588 124.64 98.0588 125.44C98.0588 126.224 97.4348 126.64 96.4268 126.64H94.6668V124.224ZM106.792 128V124.816H108.024L110.552 128H112.52L109.432 124.128L112.216 120.32H110.264L108.056 123.36H106.792V120.32H105.08V128H106.792ZM120.108 126.224V123.472C120.108 121.152 118.732 120.112 116.556 120.112C115.324 120.112 114.22 120.416 113.612 120.624V122.192C114.3 121.888 115.244 121.6 116.38 121.6C117.692 121.6 118.396 122.272 118.396 123.232V123.504C117.788 123.376 117.052 123.28 116.396 123.28C114.796 123.28 112.972 123.888 112.972 125.856C112.972 127.44 114.268 128.208 115.66 128.208C116.86 128.208 117.804 127.824 118.556 127.216C118.828 127.84 119.388 128.112 120.092 128.112C120.476 128.112 120.86 128.048 121.18 127.92V126.688C121.02 126.736 120.844 126.784 120.668 126.784C120.364 126.784 120.108 126.656 120.108 126.224ZM116.732 124.48C117.276 124.48 117.932 124.576 118.396 124.672V125.968C117.788 126.576 116.988 126.88 116.172 126.88C115.404 126.88 114.732 126.496 114.732 125.744C114.732 124.784 115.756 124.48 116.732 124.48ZM128.698 128V120.32H126.986V124.032C126.474 124.224 125.978 124.32 125.338 124.32C124.266 124.32 123.578 123.984 123.578 122.864V120.32H121.866V123.008C121.866 124.944 123.13 125.824 124.842 125.824C125.706 125.824 126.33 125.696 126.986 125.456V128H128.698ZM130.365 124.16C130.365 126.864 132.365 128.208 134.717 128.208C135.789 128.208 136.765 128.016 137.469 127.68V126.208C136.813 126.528 135.965 126.752 135.037 126.752C133.629 126.752 132.285 126.176 132.093 124.8H137.869C138.365 122.576 137.309 120.112 134.253 120.112C132.477 120.112 130.365 121.376 130.365 124.16ZM136.333 123.52H132.077C132.141 122.224 133.181 121.536 134.333 121.536C136.013 121.536 136.429 122.848 136.333 123.52ZM139.1 124.224C139.1 126.96 141.196 128.208 143.244 128.208C144.22 128.208 145.052 128.032 145.788 127.68V126.096C145.18 126.448 144.364 126.688 143.548 126.688C142.172 126.688 140.844 125.904 140.844 124.16C140.844 122.352 142.22 121.632 143.58 121.632C144.364 121.632 145.148 121.872 145.708 122.272V120.704C145.036 120.304 144.204 120.112 143.34 120.112C141.292 120.112 139.1 121.36 139.1 124.224ZM151.07 128V121.824H153.71V120.32H146.702V121.824H149.358V128H151.07ZM159.561 128C161.337 128 162.089 127.072 162.089 125.888C162.089 124.944 161.497 124.336 160.777 124.112C161.433 123.824 161.865 123.216 161.865 122.368C161.865 121.168 160.985 120.32 159.433 120.32H155.049V128H159.561ZM156.761 124.736H159.177C159.769 124.736 160.361 124.944 160.361 125.728C160.361 126.464 159.849 126.704 159.145 126.704H156.761V124.736ZM156.761 121.616H159.049C159.577 121.616 160.137 121.84 160.137 122.592C160.137 123.28 159.657 123.52 159.049 123.52H156.761V121.616ZM170.358 126.224V123.472C170.358 121.152 168.982 120.112 166.806 120.112C165.574 120.112 164.47 120.416 163.862 120.624V122.192C164.55 121.888 165.494 121.6 166.63 121.6C167.942 121.6 168.646 122.272 168.646 123.232V123.504C168.038 123.376 167.302 123.28 166.646 123.28C165.046 123.28 163.222 123.888 163.222 125.856C163.222 127.44 164.518 128.208 165.91 128.208C167.11 128.208 168.054 127.824 168.806 127.216C169.078 127.84 169.638 128.112 170.342 128.112C170.726 128.112 171.11 128.048 171.43 127.92V126.688C171.27 126.736 171.094 126.784 170.918 126.784C170.614 126.784 170.358 126.656 170.358 126.224ZM166.982 124.48C167.526 124.48 168.182 124.576 168.646 124.672V125.968C168.038 126.576 167.238 126.88 166.422 126.88C165.654 126.88 164.982 126.496 164.982 125.744C164.982 124.784 166.006 124.48 166.982 124.48ZM59.4793 152V145.824H63.3193V152H65.0313V144.32H57.7673V152H59.4793ZM68.6936 145.52V144.32H67.1736V155.52H68.8856V151.008C69.4136 151.616 70.3096 152.208 71.6536 152.208C73.9576 152.208 75.4616 150.368 75.4616 148.16C75.4616 145.952 73.9576 144.112 71.6536 144.112C70.2136 144.112 69.3016 144.784 68.6936 145.52ZM73.7176 148.16C73.7176 149.664 72.7256 150.704 71.3336 150.704C70.1496 150.704 69.2536 149.936 68.8856 149.088V147.216C69.2536 146.384 70.1496 145.616 71.3336 145.616C72.7256 145.616 73.7176 146.656 73.7176 148.16ZM76.6467 148.16C76.6467 150.816 78.6627 152.208 80.8067 152.208C82.9667 152.208 84.9667 150.816 84.9667 148.16C84.9667 145.504 82.9667 144.112 80.8067 144.112C78.6627 144.112 76.6467 145.504 76.6467 148.16ZM83.2227 148.16C83.2227 149.664 82.2307 150.64 80.8067 150.64C79.3667 150.64 78.3747 149.664 78.3747 148.16C78.3747 146.656 79.3667 145.68 80.8067 145.68C82.2307 145.68 83.2227 146.656 83.2227 148.16ZM87.3672 154.064V152H93.5432V154.064H95.1592V150.592H94.0232V144.32H88.0232C88.0552 146.992 87.7352 148.944 86.8072 150.592H85.7512V154.064H87.3672ZM89.6232 145.728H92.2952V150.592H88.5992C89.2392 149.232 89.5592 147.792 89.6232 145.728ZM99.7702 150.112L97.1782 144.32H95.3542L99.0022 152.064L98.8422 152.448C98.3942 153.648 97.7702 154.24 96.9382 154.24C96.6822 154.24 96.4102 154.208 96.1542 154.128V155.584C96.4902 155.664 96.8262 155.712 97.1622 155.712C98.3302 155.712 99.4182 155.04 100.25 153.04L103.85 144.32H102.058L99.7702 150.112ZM106.839 152V148.816H108.071L110.599 152H112.567L109.479 148.128L112.263 144.32H110.311L108.103 147.36H106.839V144.32H105.127V152H106.839ZM121.929 154.064V150.528H120.777V144.32H119.065V150.496H115.401V144.32H113.689V152H120.313V154.064H121.929ZM124.974 152L129.086 146.976V152H130.798V144.32H129.326L125.214 149.344V144.32H123.502V152H124.974ZM134.411 152L138.523 146.976V152H140.235V144.32H138.763L134.651 149.344V144.32H132.939V152H134.411Z" fill="#181818"/>
<path d="M113.669 41.93C113.108 41.6061 112.39 41.7985 112.066 42.3595C111.742 42.9216 111.934 43.6386 112.495 43.9625C113.056 44.2876 113.774 44.0951 114.098 43.533C114.422 42.9721 114.23 42.2551 113.669 41.93Z" fill="#399A3A"/>
<path d="M99.0002 38C98.3524 38 97.8267 38.5257 97.8267 39.1735C97.8267 39.8213 98.3524 40.347 99.0002 40.347C99.648 40.347 100.174 39.8213 100.174 39.1735C100.174 38.5257 99.648 38 99.0002 38Z" fill="#399A3A"/>
<path d="M99.0002 69.2148C98.3524 69.2148 97.8267 69.7405 97.8267 70.3883C97.8267 71.0361 98.3524 71.5618 99.0002 71.5618C99.648 71.5618 100.174 71.0361 100.174 70.3883C100.174 69.7407 99.648 69.2148 99.0002 69.2148Z" fill="#399A3A"/>
<path d="M85.9344 42.3595C85.6105 41.7985 84.8924 41.6061 84.3314 41.93C83.7704 42.2551 83.578 42.972 83.9019 43.533C84.2258 44.0951 84.9439 44.2876 85.5049 43.9625C86.0658 43.6386 86.2583 42.9215 85.9344 42.3595Z" fill="#399A3A"/>
<path d="M99.0002 42.6941C98.3521 42.6941 97.8267 43.2194 97.8267 43.8676V48.5616C97.8267 49.2098 98.3521 49.7352 99.0002 49.7352C99.6482 49.7352 100.174 49.2098 100.174 48.5616V43.8675C100.174 43.2194 99.6482 42.6941 99.0002 42.6941Z" fill="#399A3A"/>
<path d="M90.6285 50.4905L88.2816 46.4244C87.9575 45.8631 87.24 45.6703 86.6786 45.9947C86.1173 46.3187 85.9249 47.0362 86.2489 47.5977L88.5959 51.6639C88.8134 52.0405 89.2078 52.2509 89.6135 52.2509C89.8123 52.2509 90.0142 52.2002 90.1989 52.0935C90.7601 51.7695 90.9526 51.0519 90.6285 50.4905Z" fill="#399A3A"/>
<path d="M111.322 45.9951C110.76 45.6709 110.043 45.8634 109.719 46.4248L107.372 50.491C107.048 51.0522 107.24 51.7698 107.801 52.0939C107.986 52.2005 108.188 52.2512 108.387 52.2512C108.793 52.2512 109.187 52.0406 109.404 51.6642L111.752 47.5981C112.076 47.0368 111.883 46.319 111.322 45.9951Z" fill="#399A3A"/>
<path d="M123.643 70.3805C123.643 70.3661 123.642 70.3518 123.641 70.3372C123.641 70.3222 123.64 70.3072 123.639 70.2921C123.638 70.2825 123.638 70.2728 123.637 70.2633C123.635 70.2502 123.633 70.237 123.631 70.224C123.629 70.2094 123.627 70.1947 123.624 70.18C123.622 70.1689 123.621 70.1578 123.618 70.1469C123.616 70.136 123.613 70.1252 123.61 70.1143C123.607 70.0993 123.603 70.0843 123.598 70.0693C123.595 70.0573 123.592 70.045 123.588 70.033C123.586 70.0246 123.582 70.0163 123.579 70.0078C123.574 69.9919 123.568 69.9761 123.562 69.9602C123.557 69.9477 123.552 69.935 123.547 69.9227C123.544 69.9163 123.541 69.91 123.538 69.9035C123.53 69.887 123.522 69.8708 123.514 69.8545C123.508 69.8421 123.502 69.8297 123.495 69.8176C123.494 69.8155 123.493 69.8134 123.492 69.8113L116.46 57.3721C116.457 57.3659 116.452 57.3607 116.448 57.3546C116.429 57.3212 116.408 57.2887 116.385 57.2574C116.379 57.2492 116.373 57.2409 116.367 57.2328C116.338 57.195 116.306 57.1583 116.272 57.1241C116.272 57.1236 116.271 57.1231 116.271 57.1225C116.239 57.0902 116.204 57.0601 116.168 57.0314C116.159 57.0242 116.15 57.0175 116.14 57.0107C116.111 56.9891 116.081 56.9687 116.049 56.9493C116.039 56.9431 116.029 56.9366 116.019 56.9307C115.979 56.908 115.938 56.8868 115.894 56.8685C115.894 56.8682 115.893 56.868 115.893 56.8678C115.893 56.8677 115.892 56.8677 115.892 56.8675C115.849 56.8493 115.804 56.8347 115.76 56.822C115.748 56.8184 115.735 56.8157 115.722 56.8126C115.688 56.8038 115.653 56.7968 115.617 56.7913C115.605 56.7894 115.593 56.7873 115.58 56.7857C115.533 56.78 115.486 56.7764 115.439 56.7764C115.439 56.7764 115.439 56.7764 115.439 56.7764H115.438C115.436 56.7764 115.435 56.7764 115.433 56.7764H99H98.997H82.573C82.5244 56.7763 82.4757 56.78 82.4269 56.786C82.4155 56.7874 82.4044 56.7894 82.3931 56.7911C82.3576 56.7966 82.3221 56.8038 82.2867 56.8127C82.2736 56.816 82.2606 56.819 82.2477 56.8228C82.2094 56.8338 82.1713 56.8469 82.1336 56.862C82.1272 56.8646 82.1208 56.8664 82.1145 56.8691C82.1134 56.8695 82.1122 56.8698 82.1112 56.8702C82.0688 56.8883 82.0284 56.9091 81.9894 56.9315C81.9796 56.9372 81.9703 56.9435 81.9607 56.9493C81.9291 56.9686 81.8986 56.9891 81.8694 57.011C81.8598 57.0181 81.8503 57.0254 81.8408 57.0329C81.8082 57.0588 81.7771 57.0862 81.7478 57.1152C81.7439 57.1189 81.7398 57.1223 81.7361 57.1262C81.7024 57.1603 81.6711 57.1965 81.6422 57.2342C81.6367 57.2414 81.6318 57.249 81.6264 57.2562C81.6033 57.2878 81.5817 57.3205 81.562 57.3541C81.5585 57.3602 81.5541 57.3655 81.5506 57.3716L74.5234 69.7849C74.5232 69.7853 74.5231 69.7855 74.5229 69.7859L74.5089 69.8104C74.5077 69.8125 74.5069 69.8147 74.5056 69.8168C74.4984 69.8298 74.4918 69.8432 74.485 69.8565C74.4766 69.873 74.4684 69.8896 74.4608 69.9066C74.4584 69.9117 74.4558 69.9169 74.4535 69.922C74.4477 69.9353 74.4428 69.9489 74.4375 69.9625C74.4312 69.9786 74.4251 69.9948 74.4195 70.0113C74.417 70.0184 74.4142 70.0254 74.412 70.0324C74.4079 70.0453 74.4049 70.0586 74.4011 70.0717C74.3968 70.0871 74.3924 70.1026 74.3888 70.1184C74.3866 70.1278 74.3839 70.1371 74.3819 70.1464C74.3794 70.1583 74.3779 70.1705 74.3758 70.1824C74.3731 70.1977 74.3704 70.2129 74.3683 70.2285C74.3668 70.24 74.3648 70.2514 74.3636 70.2629C74.3624 70.2735 74.3623 70.2841 74.3614 70.2947C74.3601 70.3103 74.3589 70.3257 74.3583 70.3414C74.3579 70.3543 74.3572 70.3672 74.357 70.3801C74.357 70.3828 74.3567 70.3855 74.3567 70.3882C74.3567 70.3955 74.3576 70.4026 74.3577 70.4099C74.358 70.4254 74.3586 70.4408 74.3594 70.4564C74.3601 70.4692 74.3608 70.482 74.362 70.4947C74.3629 70.5056 74.3642 70.5163 74.3655 70.5271C74.3672 70.5418 74.3693 70.5565 74.3717 70.5712C74.3736 70.5828 74.3753 70.5945 74.3775 70.6059C74.3798 70.6179 74.3821 70.6297 74.3848 70.6416C74.388 70.6557 74.3916 70.6697 74.3952 70.6837C74.3979 70.6942 74.4008 70.7046 74.4037 70.715C74.4073 70.7276 74.4109 70.74 74.4149 70.7524C74.4193 70.7658 74.4242 70.7789 74.429 70.792C74.4327 70.8022 74.4366 70.8124 74.4406 70.8226C74.4455 70.8348 74.4503 70.847 74.4556 70.8591C74.4609 70.8712 74.4667 70.8832 74.4725 70.8952C74.4777 70.906 74.4831 70.9168 74.4886 70.9276C74.4946 70.939 74.5005 70.9503 74.5068 70.9616C74.5128 70.9723 74.519 70.9827 74.5253 70.9932C74.5324 71.005 74.5397 71.0166 74.5472 71.028C74.5541 71.0387 74.5613 71.0491 74.5686 71.0596C74.575 71.0687 74.5813 71.0778 74.5881 71.087C74.5968 71.0987 74.6057 71.1101 74.6149 71.1216C74.6232 71.1319 74.6318 71.1418 74.6404 71.1519C74.6453 71.1577 74.6494 71.1637 74.6546 71.1695L98.2714 97.6082C98.3003 97.6407 98.3312 97.6713 98.3633 97.7C98.368 97.7041 98.3731 97.7076 98.3778 97.7117C98.4116 97.7411 98.4471 97.7682 98.4838 97.7934C98.4958 97.8016 98.508 97.8093 98.5201 97.8171C98.5544 97.8386 98.5895 97.8583 98.6256 97.8764C98.6356 97.8813 98.6451 97.8868 98.6551 97.8915C98.7007 97.9124 98.7475 97.9304 98.7955 97.9455C98.807 97.9491 98.8187 97.9517 98.8303 97.9549C98.8689 97.9656 98.908 97.9744 98.9476 97.9813C98.9622 97.9838 98.9766 97.9864 98.9912 97.9884C99.0424 97.9952 99.0939 97.9999 99.1463 97.9999C99.1476 97.9999 99.1487 97.9999 99.1499 97.9999C99.2024 97.9998 99.2541 97.9948 99.3054 97.9878C99.3201 97.9858 99.3344 97.9832 99.349 97.9807C99.3887 97.9736 99.4281 97.9647 99.4668 97.9537C99.4784 97.9504 99.4901 97.9478 99.5016 97.9441C99.5496 97.9289 99.5965 97.9106 99.6422 97.8892C99.6522 97.8846 99.6617 97.879 99.6715 97.8741C99.7077 97.856 99.743 97.8359 99.7772 97.814C99.7895 97.8062 99.8016 97.7983 99.8137 97.79C99.85 97.7648 99.8851 97.7377 99.9187 97.7084C99.9237 97.704 99.9292 97.7001 99.9342 97.6957C99.9663 97.6665 99.9973 97.6357 100.026 97.6027L123.35 71.165C123.354 71.1602 123.358 71.1551 123.362 71.1503C123.369 71.1412 123.377 71.1321 123.385 71.1228C123.395 71.1103 123.404 71.0977 123.414 71.0848C123.42 71.0759 123.427 71.0669 123.433 71.0579C123.44 71.0485 123.446 71.0389 123.452 71.0293C123.461 71.0168 123.468 71.0041 123.476 70.9914C123.482 70.9808 123.489 70.9705 123.495 70.9598C123.5 70.9496 123.506 70.9393 123.511 70.9289C123.517 70.9173 123.523 70.9055 123.528 70.8936C123.534 70.8814 123.54 70.8694 123.546 70.8571C123.55 70.846 123.555 70.8349 123.559 70.8238C123.563 70.8129 123.568 70.8019 123.572 70.7907C123.576 70.7773 123.582 70.7638 123.586 70.7502C123.59 70.7389 123.593 70.7276 123.596 70.7162C123.599 70.705 123.602 70.6936 123.605 70.6822C123.609 70.6679 123.613 70.6537 123.616 70.6392C123.618 70.6286 123.62 70.6178 123.622 70.6069C123.624 70.5943 123.626 70.5817 123.628 70.569C123.631 70.5543 123.633 70.5396 123.635 70.5247C123.636 70.5151 123.637 70.5054 123.638 70.4957C123.639 70.4816 123.64 70.4675 123.64 70.4532C123.641 70.4381 123.642 70.423 123.642 70.408C123.642 70.4017 123.643 70.3955 123.643 70.3891C123.643 70.3857 123.643 70.3832 123.643 70.3805ZM113.674 59.1229L109.869 68.2023L101.646 59.1229H113.674ZM96.3725 59.1229L88.2236 68.215L84.3472 59.1229H96.3725ZM82.4228 60.5936L86.0986 69.2149H77.5429L82.4228 60.5936ZM78.152 71.5619H87.099L95.2694 90.724L78.152 71.5619ZM99.1374 93.8122L89.6504 71.5619H94.3061C94.9541 71.5619 95.4796 71.0366 95.4796 70.3884C95.4796 69.7403 94.9541 69.2149 94.3061 69.2149H90.4793L99.0047 59.7024L107.62 69.2149H103.694C103.046 69.2149 102.521 69.7403 102.521 70.3884C102.521 71.0366 103.046 71.5619 103.694 71.5619H108.462L99.1374 93.8122ZM102.986 90.7001L111.006 71.5619H119.87L102.986 90.7001ZM111.99 69.2149L115.595 60.6113L120.459 69.2149H111.99Z" fill="#181818"/>
</svg>
