<svg width="198" height="198" viewBox="0 0 198 198" fill="none" xmlns="http://www.w3.org/2000/svg">
<rect width="198" height="198" rx="4" fill="#F6F7FB"/>
<path d="M44.5278 128V118.48H50.2878V128H52.1118V116.8H42.7038V128H44.5278ZM56.0608 121.52V120.32H54.5408V131.52H56.2528V127.008C56.7808 127.616 57.6768 128.208 59.0208 128.208C61.3248 128.208 62.8288 126.368 62.8288 124.16C62.8288 121.952 61.3248 120.112 59.0208 120.112C57.5807 120.112 56.6688 120.784 56.0608 121.52ZM61.0848 124.16C61.0848 125.664 60.0928 126.704 58.7008 126.704C57.5168 126.704 56.6208 125.936 56.2528 125.088V123.216C56.6208 122.384 57.5168 121.616 58.7008 121.616C60.0928 121.616 61.0848 122.656 61.0848 124.16ZM64.0139 124.16C64.0139 126.816 66.0299 128.208 68.1739 128.208C70.3339 128.208 72.3339 126.816 72.3339 124.16C72.3339 121.504 70.3339 120.112 68.1739 120.112C66.0299 120.112 64.0139 121.504 64.0139 124.16ZM70.5899 124.16C70.5899 125.664 69.5979 126.64 68.1739 126.64C66.7339 126.64 65.7419 125.664 65.7419 124.16C65.7419 122.656 66.7339 121.68 68.1739 121.68C69.5979 121.68 70.5899 122.656 70.5899 124.16ZM82.2339 130.064V126.528H81.0819V120.32H79.3699V126.496H75.7059V120.32H73.9939V128H80.6179V130.064H82.2339ZM83.1701 124.16C83.1701 126.864 85.1701 128.208 87.5221 128.208C88.5941 128.208 89.5701 128.016 90.2741 127.68V126.208C89.6181 126.528 88.7701 126.752 87.8421 126.752C86.4341 126.752 85.0901 126.176 84.8981 124.8H90.6741C91.1701 122.576 90.1141 120.112 87.0581 120.112C85.2821 120.112 83.1701 121.376 83.1701 124.16ZM89.1381 123.52H84.8821C84.9461 122.224 85.9861 121.536 87.1381 121.536C88.8181 121.536 89.2341 122.848 89.1381 123.52ZM94.0965 128V124.912H97.9365V128H99.6485V120.32H97.9365V123.408H94.0965V120.32H92.3845V128H94.0965ZM105.359 128V121.824H107.999V120.32H100.991V121.824H103.647V128H105.359ZM120.799 124.432C120.799 122.112 119.135 120.704 117.199 120.704C116.015 120.704 115.023 121.28 114.511 122.048C114.735 121.168 115.167 120.176 116.143 119.616C117.775 118.704 119.039 119.072 120.111 118.256V116.592C119.023 117.664 117.343 117.072 115.135 118.432C113.759 119.296 112.767 120.992 112.767 123.648C112.767 126.736 114.511 128.208 116.799 128.208C119.119 128.208 120.799 126.864 120.799 124.432ZM114.495 124.464C114.495 123.392 115.295 122.192 116.767 122.192C118.303 122.192 119.055 123.28 119.055 124.464C119.055 125.648 118.303 126.736 116.767 126.736C115.279 126.736 114.495 125.648 114.495 124.464ZM123.998 121.52V120.32H122.478V131.52H124.19V127.008C124.718 127.616 125.614 128.208 126.958 128.208C129.262 128.208 130.766 126.368 130.766 124.16C130.766 121.952 129.262 120.112 126.958 120.112C125.518 120.112 124.606 120.784 123.998 121.52ZM129.022 124.16C129.022 125.664 128.03 126.704 126.638 126.704C125.454 126.704 124.558 125.936 124.19 125.088V123.216C124.558 122.384 125.454 121.616 126.638 121.616C128.03 121.616 129.022 122.656 129.022 124.16ZM138.975 126.224V123.472C138.975 121.152 137.599 120.112 135.423 120.112C134.191 120.112 133.087 120.416 132.479 120.624V122.192C133.167 121.888 134.111 121.6 135.247 121.6C136.559 121.6 137.263 122.272 137.263 123.232V123.504C136.655 123.376 135.919 123.28 135.263 123.28C133.663 123.28 131.839 123.888 131.839 125.856C131.839 127.44 133.135 128.208 134.527 128.208C135.727 128.208 136.671 127.824 137.423 127.216C137.695 127.84 138.255 128.112 138.959 128.112C139.343 128.112 139.727 128.048 140.047 127.92V126.688C139.887 126.736 139.711 126.784 139.535 126.784C139.231 126.784 138.975 126.656 138.975 126.224ZM135.599 124.48C136.143 124.48 136.799 124.576 137.263 124.672V125.968C136.655 126.576 135.855 126.88 135.039 126.88C134.271 126.88 133.599 126.496 133.599 125.744C133.599 124.784 134.623 124.48 135.599 124.48ZM143.05 128V124.816H144.282L146.81 128H148.778L145.69 124.128L148.474 120.32H146.522L144.314 123.36H143.05V120.32H141.338V128H143.05ZM156.366 126.224V123.472C156.366 121.152 154.99 120.112 152.814 120.112C151.582 120.112 150.478 120.416 149.87 120.624V122.192C150.558 121.888 151.502 121.6 152.638 121.6C153.95 121.6 154.654 122.272 154.654 123.232V123.504C154.046 123.376 153.31 123.28 152.654 123.28C151.054 123.28 149.23 123.888 149.23 125.856C149.23 127.44 150.526 128.208 151.918 128.208C153.118 128.208 154.062 127.824 154.814 127.216C155.086 127.84 155.646 128.112 156.35 128.112C156.734 128.112 157.118 128.048 157.438 127.92V126.688C157.278 126.736 157.102 126.784 156.926 126.784C156.622 126.784 156.366 126.656 156.366 126.224ZM152.99 124.48C153.534 124.48 154.19 124.576 154.654 124.672V125.968C154.046 126.576 153.246 126.88 152.43 126.88C151.662 126.88 150.99 126.496 150.99 125.744C150.99 124.784 152.014 124.48 152.99 124.48ZM26.0373 148.224C26.0373 150.96 28.1333 152.208 30.1813 152.208C31.1573 152.208 31.9893 152.032 32.7253 151.68V150.096C32.1173 150.448 31.3013 150.688 30.4853 150.688C29.1093 150.688 27.7813 149.904 27.7813 148.16C27.7813 146.352 29.1573 145.632 30.5173 145.632C31.3013 145.632 32.0853 145.872 32.6453 146.272V144.704C31.9733 144.304 31.1413 144.112 30.2773 144.112C28.2293 144.112 26.0373 145.36 26.0373 148.224ZM38.9512 152C40.7272 152 41.4792 151.072 41.4792 149.888C41.4792 148.944 40.8872 148.336 40.1672 148.112C40.8232 147.824 41.2552 147.216 41.2552 146.368C41.2552 145.168 40.3752 144.32 38.8232 144.32H34.4392V152H38.9512ZM36.1512 148.736H38.5672C39.1592 148.736 39.7512 148.944 39.7512 149.728C39.7512 150.464 39.2392 150.704 38.5352 150.704H36.1512V148.736ZM36.1512 145.616H38.4392C38.9672 145.616 39.5272 145.84 39.5272 146.592C39.5272 147.28 39.0472 147.52 38.4392 147.52H36.1512V145.616ZM42.7248 148.16C42.7248 150.864 44.7248 152.208 47.0768 152.208C48.1488 152.208 49.1248 152.016 49.8288 151.68V150.208C49.1728 150.528 48.3248 150.752 47.3968 150.752C45.9888 150.752 44.6448 150.176 44.4528 148.8H50.2288C50.7248 146.576 49.6688 144.112 46.6128 144.112C44.8368 144.112 42.7248 145.376 42.7248 148.16ZM48.6928 147.52H44.4368C44.5008 146.224 45.5408 145.536 46.6928 145.536C48.3728 145.536 48.7888 146.848 48.6928 147.52ZM52.7734 154.064V152H58.9494V154.064H60.5654V150.592H59.4294V144.32H53.4294C53.4614 146.992 53.1414 148.944 52.2134 150.592H51.1574V154.064H52.7734ZM55.0294 145.728H57.7014V150.592H54.0054C54.6454 149.232 54.9654 147.792 55.0294 145.728ZM68.0504 142.16C68.0504 141.6 67.5864 141.136 67.0264 141.136C66.4664 141.136 66.0024 141.6 66.0024 142.16C66.0024 142.72 66.4664 143.184 67.0264 143.184C67.5864 143.184 68.0504 142.72 68.0504 142.16ZM64.7224 142.16C64.7224 141.6 64.2744 141.136 63.6984 141.136C63.1384 141.136 62.6744 141.6 62.6744 142.16C62.6744 142.72 63.1384 143.184 63.6984 143.184C64.2744 143.184 64.7224 142.72 64.7224 142.16ZM61.4904 148.16C61.4904 150.864 63.4904 152.208 65.8424 152.208C66.9144 152.208 67.8904 152.016 68.5944 151.68V150.208C67.9384 150.528 67.0904 150.752 66.1624 150.752C64.7544 150.752 63.4104 150.176 63.2184 148.8H68.9944C69.4904 146.576 68.4344 144.112 65.3784 144.112C63.6024 144.112 61.4904 145.376 61.4904 148.16ZM67.4584 147.52H63.2024C63.2664 146.224 64.3064 145.536 65.4584 145.536C67.1384 145.536 67.5544 146.848 67.4584 147.52ZM72.4168 152V148.912H76.2568V152H77.9688V144.32H76.2568V147.408H72.4168V144.32H70.7048V152H72.4168ZM85.6043 152V148.816H86.8363L89.3643 152H91.3323L88.2443 148.128L91.0283 144.32H89.0763L86.8683 147.36H85.6043V144.32H83.8923V152H85.6043ZM97.8841 152V146.8L100.06 150.16H101.084L103.276 146.8V152H104.924V144.32H103.196L100.572 148.368L97.9641 144.32H96.2361V152H97.8841ZM108.536 152L112.648 146.976V152H114.36V144.32H112.888L108.776 149.344V144.32H107.064V152H108.536ZM118.214 152V148.912H122.054V152H123.766V144.32H122.054V147.408H118.214V144.32H116.502V152H118.214ZM127.38 152L131.492 146.976V152H133.204V144.32H131.732L127.62 149.344V144.32H125.908V152H127.38ZM136.993 152V146.8L139.169 150.16H140.193L142.385 146.8V152H144.033V144.32H142.305L139.681 148.368L137.073 144.32H135.345V152H136.993ZM149.63 150.112L147.038 144.32H145.214L148.862 152.064L148.702 152.448C148.254 153.648 147.63 154.24 146.798 154.24C146.542 154.24 146.27 154.208 146.014 154.128V155.584C146.35 155.664 146.686 155.712 147.022 155.712C148.19 155.712 149.278 155.04 150.11 153.04L153.71 144.32H151.918L149.63 150.112ZM156.634 152V146.8L158.81 150.16H159.834L162.026 146.8V152H163.674V144.32H161.946L159.322 148.368L156.714 144.32H154.986V152H156.634ZM169.27 150.112L166.678 144.32H164.854L168.502 152.064L168.342 152.448C167.894 153.648 167.27 154.24 166.438 154.24C166.182 154.24 165.91 154.208 165.654 154.128V155.584C165.99 155.664 166.326 155.712 166.662 155.712C167.83 155.712 168.918 155.04 169.75 153.04L173.35 144.32H171.558L169.27 150.112Z" fill="#181818"/>
<g clip-path="url(#clip0_32_4566)">
<path d="M124.968 40.0323C119.591 34.6559 110.843 34.6559 105.467 40.0323L99.7567 45.7423C97.522 47.9771 96.115 50.9406 95.7951 54.0868C95.5123 56.8689 96.0868 59.6835 97.4143 62.1148L95.1152 64.4139C92.6839 63.0864 89.8694 62.5119 87.0872 62.7948C83.9408 63.1146 80.9773 64.5216 78.7426 66.7563L73.0325 72.4663C67.6561 77.8427 67.6561 86.5907 73.0325 91.9672C75.6614 94.596 79.1951 95.9999 82.7948 95.9999C84.4412 95.9999 86.1021 95.7058 87.6952 95.1009C88.3002 94.8713 88.6043 94.1946 88.3747 93.5896C88.1449 92.9846 87.4682 92.6804 86.8634 92.9102C82.6482 94.5106 77.8697 93.4902 74.6898 90.3103C70.2271 85.8476 70.2271 78.5861 74.6898 74.1236L80.3998 68.4135C83.8231 64.9902 89.0756 64.1368 93.375 66.1543L91.3008 68.2284C88.1533 67.1569 84.6935 67.943 82.3113 70.3252L76.6013 76.0352C74.9525 77.6841 74.0443 79.8796 74.0443 82.2169C74.0443 84.5544 74.9524 86.7497 76.6013 88.3985C78.2503 90.0474 80.4456 90.9555 82.783 90.9555C85.1205 90.9555 87.3158 90.0474 88.9646 88.3985L94.6747 82.6885C97.0485 80.3148 97.8371 76.8709 96.7823 73.7322L98.8589 71.6556C100.855 75.948 99.9949 81.1917 96.5864 84.6002L94.6045 86.582C94.147 87.0396 94.147 87.7815 94.6045 88.2391C94.8334 88.4679 95.1332 88.5823 95.4331 88.5823C95.7329 88.5823 96.0329 88.4679 96.2616 88.2391L98.2434 86.2573C100.468 84.0327 101.873 81.0833 102.201 77.9524C102.492 75.1698 101.924 72.3498 100.601 69.9134L102.912 67.6029C104.93 68.6989 107.212 69.2756 109.518 69.2755C109.988 69.2755 110.459 69.2515 110.929 69.2032C114.069 68.8801 117.027 67.4739 119.257 65.2433L124.967 59.5333C130.344 54.1568 130.344 45.4087 124.968 40.0323ZM104.982 50.9681L110.693 45.2581C111.899 44.0518 113.506 43.3875 115.217 43.3875C116.929 43.3875 118.535 44.0518 119.742 45.2581C120.948 46.4644 121.612 48.0713 121.612 49.7827C121.612 51.4941 120.948 53.101 119.742 54.3074L114.032 60.0173C112.618 61.4314 110.618 62.0758 108.683 61.8317L108.686 61.8284C110.201 60.3141 110.201 57.8501 108.686 56.3358C107.953 55.6023 106.977 55.1983 105.94 55.1983C104.902 55.1983 103.927 55.6023 103.194 56.3359L103.166 56.3632C102.893 54.4088 103.535 52.416 104.982 50.9681ZM104.85 57.9929C105.141 57.7019 105.528 57.5416 105.94 57.5416C106.351 57.5416 106.738 57.7019 107.029 57.9929C107.63 58.5935 107.63 59.5707 107.029 60.1713L101.894 65.3068C101.888 65.3121 101.883 65.3172 101.878 65.3227L100.6 66.6006L99.1468 63.6966L104.85 57.9929ZM93.1717 74.0286C92.571 74.6294 91.5937 74.6293 90.9932 74.0286C90.7023 73.7377 90.542 73.3508 90.542 72.9394C90.542 72.528 90.7023 72.1411 90.9932 71.8502L97.4004 65.4431L98.8533 68.347L93.1717 74.0286ZM93.0177 81.0314L87.3076 86.7413C86.1013 87.9476 84.4944 88.612 82.783 88.612C81.0716 88.612 79.4648 87.9476 78.2584 86.7413C77.0521 85.5351 76.3877 83.9282 76.3877 82.2168C76.3877 80.5054 77.0521 78.8985 78.2584 77.6921L83.9682 71.9821C85.3894 70.561 87.408 69.9165 89.3557 70.1733L89.3359 70.1931C88.6023 70.9267 88.1983 71.9019 88.1983 72.9393C88.1983 73.9767 88.6023 74.9521 89.3358 75.6857C90.093 76.4428 91.0877 76.8214 92.0822 76.8214C93.0767 76.8214 94.0713 76.4428 94.8285 75.6857L94.8389 75.6752C95.0988 77.617 94.4562 79.593 93.0177 81.0314ZM123.311 57.876L117.6 63.586C114.188 66.9985 108.949 67.8574 104.655 65.8591L106.734 63.7802C107.63 64.0772 108.558 64.2242 109.482 64.2242C111.766 64.2242 114.024 63.339 115.689 61.6744L121.399 55.9644C123.048 54.3154 123.956 52.1201 123.956 49.7827C123.956 47.4452 123.048 45.2499 121.399 43.6011C119.75 41.9521 117.554 41.0441 115.217 41.0441C112.88 41.0441 110.684 41.9521 109.035 43.6011L103.325 49.3111C100.943 51.6929 100.157 55.1531 101.229 58.3005L99.1545 60.3746C97.1371 56.0752 97.9904 50.8226 101.414 47.3994L107.124 41.6894C111.586 37.2268 118.848 37.2268 123.31 41.6894C127.773 46.152 127.773 53.4133 123.311 57.876Z" fill="black"/>
<path d="M118.28 80.4719C118.146 80.0916 117.827 79.8064 117.434 79.7168C117.041 79.6272 116.63 79.7457 116.345 80.0305L114.349 82.0265L112.877 77.8234C112.664 77.2126 111.995 76.8908 111.384 77.1048C110.774 77.3186 110.452 77.9871 110.666 78.5979L112.754 84.5606C112.887 84.9409 113.206 85.2261 113.599 85.3158C113.992 85.4056 114.403 85.2868 114.688 85.002L116.684 83.006L118.156 87.209C118.325 87.6918 118.778 87.9938 119.262 87.9938C119.39 87.9938 119.521 87.9725 119.649 87.9276C120.26 87.7138 120.581 87.0453 120.367 86.4345L118.28 80.4719Z" fill="#399A3A"/>
<path d="M120.213 71.1897H115.517C114.87 71.1897 114.345 71.7143 114.345 72.3614C114.345 73.0085 114.87 73.5331 115.517 73.5331H120.213C120.861 73.5331 121.385 73.0085 121.385 72.3614C121.385 71.7143 120.861 71.1897 120.213 71.1897Z" fill="#399A3A"/>
<path d="M105.362 81.3447C104.715 81.3447 104.19 81.8693 104.19 82.5164V87.2132C104.19 87.8604 104.715 88.3849 105.362 88.3849C106.009 88.3849 106.533 87.8604 106.533 87.2132V82.5164C106.533 81.8693 106.009 81.3447 105.362 81.3447Z" fill="#399A3A"/>
<path d="M77.8127 46.8662L82.0157 48.338L80.0197 50.3339C79.7348 50.6189 79.6163 51.0301 79.706 51.423C79.7956 51.8159 80.0808 52.1352 80.4611 52.2683L86.4237 54.3562C86.5518 54.401 86.6824 54.4224 86.811 54.4224C87.2949 54.4224 87.7479 54.1202 87.9168 53.6376C88.1307 53.0269 87.809 52.3584 87.1982 52.1444L82.9952 50.6727L84.9912 48.6768C85.2761 48.3918 85.3946 47.9805 85.305 47.5877C85.2153 47.1948 84.9301 46.8755 84.5498 46.7424L78.5871 44.6545C77.9763 44.4407 77.3079 44.7624 77.094 45.3731C76.8801 45.9839 77.2019 46.6524 77.8127 46.8662Z" fill="#399A3A"/>
<path d="M92.6602 50.6768C93.3074 50.6768 93.8319 50.1522 93.8319 49.5051V44.8082C93.8319 44.161 93.3074 43.6365 92.6602 43.6365C92.0131 43.6365 91.4885 44.161 91.4885 44.8082V49.5051C91.4885 50.1522 92.0131 50.6768 92.6602 50.6768Z" fill="#399A3A"/>
<path d="M77.8084 60.8317H82.5053C83.1525 60.8317 83.6771 60.3071 83.6771 59.66C83.6771 59.0129 83.1525 58.4883 82.5053 58.4883H77.8084C77.1613 58.4883 76.6367 59.0129 76.6367 59.66C76.6367 60.3071 77.1613 60.8317 77.8084 60.8317Z" fill="#399A3A"/>
<path d="M91.7049 89.967C91.3968 89.967 91.0945 90.0924 90.8765 90.3104C90.6586 90.5283 90.5332 90.8306 90.5332 91.1388C90.5332 91.4469 90.6586 91.7492 90.8765 91.9671C91.0945 92.1851 91.3968 92.3105 91.7049 92.3105C92.0131 92.3105 92.3154 92.1851 92.5333 91.9671C92.7512 91.7492 92.8766 91.4469 92.8766 91.1388C92.8766 90.8306 92.7512 90.5283 92.5333 90.3104C92.3154 90.0924 92.0131 89.967 91.7049 89.967Z" fill="#399A3A"/>
</g>
<defs>
<clipPath id="clip0_32_4566">
<rect width="60" height="60" fill="white" transform="translate(69 36)"/>
</clipPath>
</defs>
</svg>
