<svg width="198" height="198" viewBox="0 0 198 198" fill="none" xmlns="http://www.w3.org/2000/svg">
<rect width="198" height="198" rx="4" fill="#F6F7FB"/>
<path d="M41.391 130.544V128H49.839V130.544H51.503V126.336H50.079V116.8H42.863C42.863 120.096 42.495 123.744 41.071 126.336H39.727V130.544H41.391ZM44.655 118.48H48.255V126.336H43.055C44.111 124.304 44.479 121.264 44.655 118.48ZM59.616 126.224V123.472C59.616 121.152 58.24 120.112 56.064 120.112C54.832 120.112 53.728 120.416 53.12 120.624V122.192C53.808 121.888 54.752 121.6 55.888 121.6C57.2 121.6 57.904 122.272 57.904 123.232V123.504C57.296 123.376 56.56 123.28 55.904 123.28C54.304 123.28 52.48 123.888 52.48 125.856C52.48 127.44 53.776 128.208 55.168 128.208C56.368 128.208 57.312 127.824 58.064 127.216C58.336 127.84 58.896 128.112 59.6 128.112C59.984 128.112 60.368 128.048 60.688 127.92V126.688C60.528 126.736 60.352 126.784 60.176 126.784C59.872 126.784 59.616 126.656 59.616 126.224ZM56.24 124.48C56.784 124.48 57.44 124.576 57.904 124.672V125.968C57.296 126.576 56.496 126.88 55.68 126.88C54.912 126.88 54.24 126.496 54.24 125.744C54.24 124.784 55.264 124.48 56.24 124.48ZM68.0583 118.16C68.0583 117.6 67.5943 117.136 67.0343 117.136C66.4743 117.136 66.0103 117.6 66.0103 118.16C66.0103 118.72 66.4743 119.184 67.0343 119.184C67.5943 119.184 68.0583 118.72 68.0583 118.16ZM64.7303 118.16C64.7303 117.6 64.2823 117.136 63.7063 117.136C63.1463 117.136 62.6823 117.6 62.6823 118.16C62.6823 118.72 63.1463 119.184 63.7063 119.184C64.2823 119.184 64.7303 118.72 64.7303 118.16ZM61.4983 124.16C61.4983 126.864 63.4983 128.208 65.8503 128.208C66.9223 128.208 67.8983 128.016 68.6023 127.68V126.208C67.9463 126.528 67.0983 126.752 66.1703 126.752C64.7623 126.752 63.4183 126.176 63.2263 124.8H69.0023C69.4983 122.576 68.4423 120.112 65.3863 120.112C63.6103 120.112 61.4983 121.376 61.4983 124.16ZM67.4663 123.52H63.2103C63.2743 122.224 64.3143 121.536 65.4663 121.536C67.1463 121.536 67.5623 122.848 67.4663 123.52ZM72.3606 128V122.8L74.5366 126.16H75.5606L77.7526 122.8V128H79.4006V120.32H77.6726L75.0486 124.368L72.4406 120.32H70.7126V128H72.3606ZM87.034 128V121.824H91.05V120.32H85.322V128H87.034ZM98.8191 126.224V123.472C98.8191 121.152 97.4431 120.112 95.2671 120.112C94.0351 120.112 92.9311 120.416 92.3231 120.624V122.192C93.0111 121.888 93.9551 121.6 95.0911 121.6C96.4031 121.6 97.1071 122.272 97.1071 123.232V123.504C96.4991 123.376 95.7631 123.28 95.1071 123.28C93.5071 123.28 91.6831 123.888 91.6831 125.856C91.6831 127.44 92.9791 128.208 94.3711 128.208C95.5711 128.208 96.5151 127.824 97.2671 127.216C97.5391 127.84 98.0991 128.112 98.8031 128.112C99.1871 128.112 99.5711 128.048 99.8911 127.92V126.688C99.7311 126.736 99.5551 126.784 99.3791 126.784C99.0751 126.784 98.8191 126.656 98.8191 126.224ZM95.4431 124.48C95.9871 124.48 96.6431 124.576 97.1071 124.672V125.968C96.4991 126.576 95.6991 126.88 94.8831 126.88C94.1151 126.88 93.4431 126.496 93.4431 125.744C93.4431 124.784 94.4671 124.48 95.4431 124.48ZM102.701 121.52V120.32H101.181V131.52H102.893V127.008C103.421 127.616 104.317 128.208 105.661 128.208C107.965 128.208 109.469 126.368 109.469 124.16C109.469 121.952 107.965 120.112 105.661 120.112C104.221 120.112 103.309 120.784 102.701 121.52ZM107.725 124.16C107.725 125.664 106.733 126.704 105.341 126.704C104.157 126.704 103.261 125.936 102.893 125.088V123.216C103.261 122.384 104.157 121.616 105.341 121.616C106.733 121.616 107.725 122.656 107.725 124.16ZM117.679 126.224V123.472C117.679 121.152 116.303 120.112 114.127 120.112C112.895 120.112 111.791 120.416 111.183 120.624V122.192C111.871 121.888 112.815 121.6 113.951 121.6C115.263 121.6 115.967 122.272 115.967 123.232V123.504C115.359 123.376 114.623 123.28 113.967 123.28C112.367 123.28 110.543 123.888 110.543 125.856C110.543 127.44 111.839 128.208 113.231 128.208C114.431 128.208 115.375 127.824 116.127 127.216C116.399 127.84 116.959 128.112 117.663 128.112C118.047 128.112 118.431 128.048 118.751 127.92V126.688C118.591 126.736 118.415 126.784 118.239 126.784C117.935 126.784 117.679 126.656 117.679 126.224ZM114.303 124.48C114.847 124.48 115.503 124.576 115.967 124.672V125.968C115.359 126.576 114.559 126.88 113.743 126.88C112.975 126.88 112.303 126.496 112.303 125.744C112.303 124.784 113.327 124.48 114.303 124.48ZM121.753 128V124.912H125.593V128H127.305V120.32H125.593V123.408H121.753V120.32H120.041V128H121.753ZM133.015 128V121.824H135.655V120.32H128.647V121.824H131.303V128H133.015ZM138.466 128L142.578 122.976V128H144.29V120.32H142.818L138.706 125.344V120.32H136.994V128H138.466ZM158.031 124.16C158.031 121.504 156.031 120.112 153.871 120.112C151.967 120.112 150.127 121.264 149.807 123.44H148.143V120.32H146.431V128H148.143V124.88H149.807C150.127 127.056 151.967 128.208 153.871 128.208C156.031 128.208 158.031 126.816 158.031 124.16ZM151.439 124.16C151.439 122.656 152.415 121.632 153.871 121.632C155.327 121.632 156.287 122.656 156.287 124.16C156.287 125.664 155.327 126.688 153.871 126.688C152.415 126.688 151.439 125.664 151.439 124.16ZM66.1545 148.16C66.1545 150.816 68.1705 152.208 70.3145 152.208C72.4745 152.208 74.4745 150.816 74.4745 148.16C74.4745 145.504 72.4745 144.112 70.3145 144.112C68.1705 144.112 66.1545 145.504 66.1545 148.16ZM72.7305 148.16C72.7305 149.664 71.7385 150.64 70.3145 150.64C68.8745 150.64 67.8825 149.664 67.8825 148.16C67.8825 146.656 68.8745 145.68 70.3145 145.68C71.7385 145.68 72.7305 146.656 72.7305 148.16ZM79.4994 152V145.824H82.1394V144.32H75.1314V145.824H77.7874V152H79.4994ZM89.6595 141.12L87.0195 142.128V143.808L89.1955 142.992V150.352H87.0195V152H92.9395V150.352H91.0035V141.12H89.6595ZM99.8621 152V145.824H103.878V144.32H98.1501V152H99.8621ZM104.53 148.16C104.53 150.816 106.546 152.208 108.69 152.208C110.85 152.208 112.85 150.816 112.85 148.16C112.85 145.504 110.85 144.112 108.69 144.112C106.546 144.112 104.53 145.504 104.53 148.16ZM111.106 148.16C111.106 149.664 110.114 150.64 108.69 150.64C107.25 150.64 106.258 149.664 106.258 148.16C106.258 146.656 107.25 145.68 108.69 145.68C110.114 145.68 111.106 146.656 111.106 148.16ZM115.25 154.064V152H121.426V154.064H123.042V150.592H121.906V144.32H115.906C115.938 146.992 115.618 148.944 114.69 150.592H113.634V154.064H115.25ZM117.506 145.728H120.178V150.592H116.482C117.122 149.232 117.442 147.792 117.506 145.728ZM131.147 150.224V147.472C131.147 145.152 129.771 144.112 127.595 144.112C126.363 144.112 125.259 144.416 124.651 144.624V146.192C125.339 145.888 126.283 145.6 127.419 145.6C128.731 145.6 129.435 146.272 129.435 147.232V147.504C128.827 147.376 128.091 147.28 127.435 147.28C125.835 147.28 124.011 147.888 124.011 149.856C124.011 151.44 125.307 152.208 126.699 152.208C127.899 152.208 128.843 151.824 129.595 151.216C129.867 151.84 130.427 152.112 131.131 152.112C131.515 152.112 131.899 152.048 132.219 151.92V150.688C132.059 150.736 131.883 150.784 131.707 150.784C131.403 150.784 131.147 150.656 131.147 150.224ZM127.771 148.48C128.315 148.48 128.971 148.576 129.435 148.672V149.968C128.827 150.576 128.027 150.88 127.211 150.88C126.443 150.88 125.771 150.496 125.771 149.744C125.771 148.784 126.795 148.48 127.771 148.48Z" fill="#181818"/>
<g clip-path="url(#clip0_32_4532)">
<path d="M111.167 67.5188C114.027 63.436 115.538 58.6432 115.538 53.6586V42.545C115.538 41.9962 115.157 41.5206 114.621 41.4011L99.4894 38.0278C99.3214 37.9907 99.1475 37.9907 98.9795 38.0278L83.8481 41.4011C83.312 41.5206 82.9312 41.9962 82.9312 42.545V53.6586C82.9312 58.6432 84.4427 63.436 87.3023 67.5184C90.162 71.6012 94.1496 74.6595 98.8343 76.3633C98.9634 76.41 99.0994 76.4338 99.2344 76.4338C99.3699 76.4338 99.5059 76.41 99.635 76.3633C104.32 74.6599 108.307 71.6012 111.167 67.5188ZM99.2344 74.0104C95.1777 72.4462 91.7221 69.7436 89.2222 66.1739C86.64 62.4875 85.2749 58.1598 85.2749 53.6586V43.4844L99.2344 40.3725L113.194 43.4844V53.6586C113.194 58.1594 111.829 62.4871 109.247 66.1739C106.747 69.7436 103.291 72.4462 99.2344 74.0104Z" fill="#181818"/>
<path d="M111.201 46.0218C111.201 45.4725 110.82 44.9974 110.284 44.8779L99.4899 42.4714C99.3219 42.4343 99.1475 42.4343 98.9795 42.4714L88.185 44.8779C87.5533 45.0189 87.1555 45.6451 87.2965 46.2768C87.437 46.9085 88.0637 47.3063 88.6949 47.1653L99.2345 44.8161L108.857 46.9612V53.6587C108.857 57.265 107.764 60.7321 105.695 63.686C104.033 66.0591 101.807 67.9817 99.2345 69.274C96.6619 67.9822 94.4367 66.0591 92.7745 63.686C90.9851 61.1313 89.9103 58.1448 89.6668 55.0503C89.6462 54.7921 89.6315 54.5312 89.6228 54.274C89.6004 53.6267 89.0543 53.1208 88.4111 53.1428C87.7643 53.1652 87.258 53.7077 87.2804 54.3545C87.2905 54.6461 87.307 54.9423 87.3299 55.2343C87.6064 58.7458 88.8254 62.1333 90.8547 65.0305C92.8592 67.892 95.5866 70.1771 98.7424 71.6383C98.8985 71.7107 99.067 71.7468 99.235 71.7468C99.403 71.7468 99.571 71.7107 99.7271 71.6383C102.883 70.1767 105.611 67.892 107.615 65.0305C109.961 61.681 111.201 57.7484 111.201 53.6587V46.0218H111.201Z" fill="#399A3A"/>
<path d="M95.8959 59.7419C96.101 59.9846 96.3953 60.1333 96.7125 60.1544C96.7386 60.1562 96.7647 60.1571 96.7908 60.1571C97.0801 60.1571 97.3607 60.05 97.5768 59.8546L106.073 52.1678C106.553 51.7338 106.59 50.9927 106.156 50.5125C105.721 50.0328 104.98 49.9957 104.5 50.4296L96.903 57.303L94.7345 54.7381C94.3171 54.2442 93.5773 54.1819 93.0834 54.5999C92.589 55.0178 92.5272 55.7571 92.9447 56.2515L95.8959 59.7419Z" fill="#181818"/>
<path d="M89.3663 76.7837C88.7488 75.9716 87.8511 75.4552 86.839 75.3289C85.8269 75.203 84.8299 75.4827 84.0315 76.1176C83.658 76.4147 83.3563 76.7708 83.1288 77.1631L82.7846 76.7145C82.4788 76.3167 82.3108 75.8214 82.3108 75.3197V64.7477C82.3108 62.5879 80.5534 60.8306 78.3937 60.8306C76.3622 60.8306 74.6858 62.3558 74.494 64.3778L73.2397 77.6058C73.1294 78.7644 73.4563 79.9138 74.1635 80.8477L84.1245 93.818V96.8282C84.1245 97.4755 84.6491 98.0001 85.2963 98.0001C85.9432 98.0001 86.4682 97.4755 86.4682 96.8282V93.4197C86.4682 93.1615 86.3826 92.9107 86.2256 92.7061L76.0271 79.4263C75.6796 78.9676 75.5185 78.3996 75.573 77.8269L76.8277 64.5993C76.9046 63.7868 77.578 63.1743 78.3937 63.1743C79.2616 63.1743 79.9671 63.8802 79.9671 64.7477V75.3197C79.9671 76.335 80.3076 77.3371 80.9261 78.1418L83.3792 81.3366C83.3829 81.3416 83.3866 81.3466 83.3902 81.3517L85.3696 83.9294C85.7642 84.4425 86.4998 84.5391 87.013 84.145C87.5261 83.7508 87.6227 83.0152 87.2286 82.5016L85.2428 79.9157C84.7827 79.3069 84.8926 78.4279 85.4914 77.9519C85.7921 77.7125 86.1679 77.6072 86.5492 77.6543C86.9306 77.7019 87.2689 77.8969 87.5014 78.2027L92.2324 84.4201C93.1635 85.6437 93.6762 87.1644 93.6762 88.702V96.8282C93.6762 97.4755 94.2008 98.0001 94.8481 98.0001C95.4953 98.0001 96.0199 97.4755 96.0199 96.8282V88.702C96.0199 86.6549 95.3374 84.6302 94.0978 83.001L89.3663 76.7837Z" fill="#181818"/>
<path d="M124.901 77.6058L123.646 64.3778C123.454 62.3558 121.777 60.8306 119.746 60.8306C117.587 60.8306 115.829 62.5879 115.829 64.7477V75.3197C115.829 75.8214 115.661 76.3167 115.355 76.7145L115.011 77.1631C114.784 76.7713 114.482 76.4152 114.109 76.1176C113.31 75.4827 112.313 75.203 111.301 75.3289C110.289 75.4552 109.391 75.9716 108.774 76.7837L104.043 83.001C102.803 84.6302 102.12 86.6549 102.12 88.7025V96.8282C102.12 97.4755 102.645 98.0001 103.292 98.0001C103.939 98.0001 104.464 97.4755 104.464 96.8282V88.702C104.464 87.1644 104.977 85.6437 105.908 84.4201L110.639 78.2027C110.872 77.8969 111.21 77.7024 111.591 77.6543C111.973 77.6072 112.348 77.7125 112.649 77.9519C113.247 78.4279 113.358 79.3069 112.897 79.9157L110.912 82.5016C110.518 83.0152 110.614 83.7508 111.128 84.145C111.641 84.5391 112.376 84.4425 112.771 83.9294L114.75 81.3517C114.754 81.3471 114.757 81.3425 114.76 81.338L117.214 78.1423C117.832 77.3371 118.173 76.335 118.173 75.3197V64.7477C118.173 63.8802 118.879 63.1743 119.746 63.1743C120.562 63.1743 121.235 63.7868 121.313 64.5993L122.568 77.8269C122.622 78.4 122.46 78.9676 122.118 79.4204L111.914 92.7061C111.757 92.9107 111.672 93.162 111.672 93.4202V96.8282C111.672 97.4755 112.197 98.0001 112.844 98.0001C113.491 98.0001 114.016 97.4755 114.016 96.8282V93.818L123.981 80.8417C124.684 79.9138 125.011 78.7644 124.901 77.6058Z" fill="#181818"/>
<path d="M87.7894 51.1365C88.2019 51.4116 88.7603 51.3942 89.1531 51.0917C89.5225 50.8069 89.696 50.3098 89.5715 49.8584C89.4383 49.3746 89.0052 49.0194 88.5021 48.9919C88.0041 48.9649 87.534 49.2688 87.3513 49.7316C87.1508 50.2402 87.3362 50.8317 87.7894 51.1365Z" fill="#399A3A"/>
</g>
<defs>
<clipPath id="clip0_32_4532">
<rect width="60" height="60" fill="white" transform="translate(69 38)"/>
</clipPath>
</defs>
</svg>
