<svg width="198" height="198" viewBox="0 0 198 198" fill="none" xmlns="http://www.w3.org/2000/svg">
<rect width="198" height="198" rx="4" fill="#F6F7FB"/>
<path d="M58.3519 130.544V128H66.7999V130.544H68.4639V126.336H67.0399V116.8H59.8239C59.8239 120.096 59.4559 123.744 58.0319 126.336H56.6879V130.544H58.3519ZM61.6159 118.48H65.2159V126.336H60.0159C61.0719 124.304 61.4399 121.264 61.6159 118.48ZM69.3342 124.16C69.3342 126.816 71.3502 128.208 73.4942 128.208C75.6542 128.208 77.6542 126.816 77.6542 124.16C77.6542 121.504 75.6542 120.112 73.4942 120.112C71.3502 120.112 69.3342 121.504 69.3342 124.16ZM75.9102 124.16C75.9102 125.664 74.9182 126.64 73.4942 126.64C72.0542 126.64 71.0622 125.664 71.0622 124.16C71.0622 122.656 72.0542 121.68 73.4942 121.68C74.9182 121.68 75.9102 122.656 75.9102 124.16ZM78.8342 124.224C78.8342 126.96 80.9302 128.208 82.9782 128.208C83.9542 128.208 84.7862 128.032 85.5222 127.68V126.096C84.9142 126.448 84.0982 126.688 83.2822 126.688C81.9062 126.688 80.5782 125.904 80.5782 124.16C80.5782 122.352 81.9542 121.632 83.3142 121.632C84.0982 121.632 84.8822 121.872 85.4422 122.272V120.704C84.7702 120.304 83.9382 120.112 83.0742 120.112C81.0262 120.112 78.8342 121.36 78.8342 124.224ZM90.8041 128V121.824H93.4441V120.32H86.4361V121.824H89.0921V128H90.8041ZM94.0998 124.16C94.0998 126.816 96.1158 128.208 98.2598 128.208C100.42 128.208 102.42 126.816 102.42 124.16C102.42 121.504 100.42 120.112 98.2598 120.112C96.1158 120.112 94.0998 121.504 94.0998 124.16ZM100.676 124.16C100.676 125.664 99.6838 126.64 98.2598 126.64C96.8198 126.64 95.8278 125.664 95.8278 124.16C95.8278 122.656 96.8198 121.68 98.2598 121.68C99.6838 121.68 100.676 122.656 100.676 124.16ZM110.064 118.592V117.2C109.248 117.712 108.528 117.872 107.728 117.872C106.928 117.872 106.208 117.712 105.392 117.2V118.592C106.096 119.072 106.864 119.248 107.728 119.248C108.592 119.248 109.36 119.072 110.064 118.592ZM105.552 128L109.664 122.976V128H111.376V120.32H109.904L105.792 125.344V120.32H104.08V128H105.552ZM115.229 128V124.912H119.069V128H120.781V120.32H119.069V123.408H115.229V120.32H113.517V128H115.229ZM126.732 128C128.668 128 129.772 126.88 129.772 125.44C129.772 123.984 128.668 122.88 126.732 122.88H124.636V120.32H122.924V128H126.732ZM124.636 124.224H126.396C127.404 124.224 128.028 124.64 128.028 125.44C128.028 126.224 127.404 126.64 126.396 126.64H124.636V124.224ZM132.86 128V120.32H131.148V128H132.86ZM134.522 124.16C134.522 126.864 136.522 128.208 138.874 128.208C139.946 128.208 140.922 128.016 141.626 127.68V126.208C140.97 126.528 140.122 126.752 139.194 126.752C137.786 126.752 136.442 126.176 136.25 124.8H142.026C142.522 122.576 141.466 120.112 138.41 120.112C136.634 120.112 134.522 121.376 134.522 124.16ZM140.49 123.52H136.234C136.298 122.224 137.338 121.536 138.49 121.536C140.17 121.536 140.586 122.848 140.49 123.52ZM45.5998 148.16C45.5998 150.816 47.6158 152.208 49.7598 152.208C51.9198 152.208 53.9198 150.816 53.9198 148.16C53.9198 145.504 51.9198 144.112 49.7598 144.112C47.6158 144.112 45.5998 145.504 45.5998 148.16ZM52.1758 148.16C52.1758 149.664 51.1838 150.64 49.7598 150.64C48.3198 150.64 47.3278 149.664 47.3278 148.16C47.3278 146.656 48.3198 145.68 49.7598 145.68C51.1838 145.68 52.1758 146.656 52.1758 148.16ZM57.2918 152V145.824H61.1318V152H62.8438V144.32H55.5798V152H57.2918ZM68.5541 152V145.824H71.1941V144.32H64.1861V145.824H66.8421V152H68.5541ZM71.8498 148.16C71.8498 150.816 73.8658 152.208 76.0098 152.208C78.1698 152.208 80.1698 150.816 80.1698 148.16C80.1698 145.504 78.1698 144.112 76.0098 144.112C73.8658 144.112 71.8498 145.504 71.8498 148.16ZM78.4258 148.16C78.4258 149.664 77.4338 150.64 76.0098 150.64C74.5698 150.64 73.5778 149.664 73.5778 148.16C73.5778 146.656 74.5698 145.68 76.0098 145.68C77.4338 145.68 78.4258 146.656 78.4258 148.16ZM86.3418 152C88.1178 152 88.8698 151.072 88.8698 149.888C88.8698 148.944 88.2778 148.336 87.5578 148.112C88.2138 147.824 88.6458 147.216 88.6458 146.368C88.6458 145.168 87.7658 144.32 86.2138 144.32H81.8298V152H86.3418ZM83.5418 148.736H85.9578C86.5498 148.736 87.1418 148.944 87.1418 149.728C87.1418 150.464 86.6298 150.704 85.9258 150.704H83.5418V148.736ZM83.5418 145.616H85.8298C86.3578 145.616 86.9178 145.84 86.9178 146.592C86.9178 147.28 86.4378 147.52 85.8298 147.52H83.5418V145.616ZM94.4034 152C96.3394 152 97.4434 150.88 97.4434 149.44C97.4434 147.984 96.3394 146.88 94.4034 146.88H92.3074V144.32H90.5954V152H94.4034ZM92.3074 148.224H94.0674C95.0754 148.224 95.6994 148.64 95.6994 149.44C95.6994 150.224 95.0754 150.64 94.0674 150.64H92.3074V148.224ZM100.531 152V144.32H98.8194V152H100.531ZM102.194 148.16C102.194 150.864 104.194 152.208 106.546 152.208C107.618 152.208 108.594 152.016 109.298 151.68V150.208C108.642 150.528 107.794 150.752 106.866 150.752C105.458 150.752 104.114 150.176 103.922 148.8H109.698C110.194 146.576 109.138 144.112 106.082 144.112C104.306 144.112 102.194 145.376 102.194 148.16ZM108.162 147.52H103.906C103.97 146.224 105.01 145.536 106.162 145.536C107.842 145.536 108.258 146.848 108.162 147.52ZM123.429 154.064V150.528H122.277V144.32H120.565V150.496H116.901V144.32H115.189V152H121.813V154.064H123.429ZM124.365 148.16C124.365 150.864 126.365 152.208 128.717 152.208C129.789 152.208 130.765 152.016 131.469 151.68V150.208C130.813 150.528 129.965 150.752 129.037 150.752C127.629 150.752 126.285 150.176 126.093 148.8H131.869C132.365 146.576 131.309 144.112 128.253 144.112C126.477 144.112 124.365 145.376 124.365 148.16ZM130.333 147.52H126.077C126.141 146.224 127.181 145.536 128.333 145.536C130.013 145.536 130.429 146.848 130.333 147.52ZM135.292 152V148.912H139.132V152H140.844V144.32H139.132V147.408H135.292V144.32H133.58V152H135.292ZM146.794 152C148.73 152 149.834 150.88 149.834 149.44C149.834 147.984 148.73 146.88 146.794 146.88H144.698V144.32H142.986V152H146.794ZM144.698 148.224H146.458C147.466 148.224 148.09 148.64 148.09 149.44C148.09 150.224 147.466 150.64 146.458 150.64H144.698V148.224ZM152.922 152V144.32H151.21V152H152.922Z" fill="#181818"/>
<g clip-path="url(#clip0_32_4522)">
<path d="M89.836 62.2486C90.2942 61.7903 90.2942 61.0483 89.836 60.5915C89.3791 60.1332 88.6371 60.1332 88.1789 60.5915C87.7206 61.0483 87.7206 61.7903 88.1789 62.2486C88.6371 62.7054 89.3791 62.7054 89.836 62.2486Z" fill="#399A3A"/>
<path d="M101.437 63.9058C102.808 62.5353 102.808 60.3051 101.437 58.9345C100.064 57.5608 97.839 57.5603 96.4652 58.9345C95.091 60.3083 95.091 62.5316 96.4652 63.9058C97.8358 65.2764 100.066 65.2768 101.437 63.9058ZM98.1223 60.5916C98.5805 60.1339 99.3221 60.1339 99.7803 60.5916C100.237 61.0485 100.237 61.7914 99.7803 62.2483C99.323 62.7051 98.5792 62.7056 98.1223 62.2483C97.665 61.7914 97.6632 61.0508 98.1223 60.5916Z" fill="#181818"/>
<path d="M96.4652 72.1913C95.091 73.5655 95.091 75.7897 96.4652 77.1639C97.839 78.5377 100.063 78.5382 101.437 77.1639C102.808 75.7929 102.808 73.5623 101.437 72.1913C100.064 70.818 97.839 70.8175 96.4652 72.1913ZM99.7803 75.5068C99.3221 75.9646 98.5801 75.9646 98.1223 75.5068C97.665 75.0495 97.6632 74.308 98.1223 73.8488C98.5805 73.3906 99.3221 73.3911 99.7803 73.8488C100.237 74.3057 100.237 75.0495 99.7803 75.5068Z" fill="#181818"/>
<path d="M89.5155 69.9359C89.6423 70.5712 90.2603 70.9819 90.8943 70.8551L107.467 67.5399C108.101 67.4131 108.513 66.7956 108.386 66.1611C108.259 65.5262 107.642 65.1152 107.007 65.242L90.4347 68.5571C89.7998 68.6839 89.3883 69.3014 89.5155 69.9359Z" fill="#181818"/>
<path d="M104.626 44.6299C104.315 44.6299 104.017 44.753 103.797 44.9727L91.4939 57.276C91.0362 57.7338 91.0362 58.4758 91.4939 58.9336C91.9517 59.3914 92.6937 59.3914 93.151 58.9336L104.626 47.4589L119.541 62.3741L93.2321 88.6827L78.3168 73.7679L86.5222 65.5625C86.9799 65.1052 86.9799 64.3631 86.5222 63.9054C86.0644 63.4481 85.3224 63.4481 84.8646 63.9054L75.8311 72.9393C75.3734 73.3966 75.3734 74.1387 75.8311 74.5964L92.4035 91.1688C92.8613 91.6266 93.6028 91.6266 94.0606 91.1688L122.027 63.2027C122.484 62.7449 122.484 62.0029 122.027 61.5451L105.454 44.9727C105.235 44.753 104.937 44.6299 104.626 44.6299Z" fill="#399A3A"/>
<path d="M126.999 38.3438L121.969 43.3732C119.034 41.1572 114.981 41.121 112.071 43.2817L107.952 39.0423C107.947 39.0382 107.944 39.0345 107.94 39.0304C106.573 37.6635 104.35 37.6489 102.966 39.0323L70.03 72.1107C68.6562 73.4844 68.6558 75.7091 70.03 77.0834L74.6781 81.731C73.6399 84.7024 74.3888 88.071 76.6589 90.3402C78.9284 92.6107 82.2971 93.3591 85.2685 92.3218L89.9166 96.9695C91.2903 98.3432 93.516 98.3428 94.887 96.9713L127.969 64.0312C129.343 62.6569 129.343 60.4336 127.969 59.0598C127.965 59.0557 127.961 59.0521 127.957 59.0479L123.718 54.929C125.871 52.0387 125.863 47.9843 123.626 45.0308L128.656 40.0013C129.113 39.5436 129.113 38.8015 128.656 38.3438C128.198 37.886 127.456 37.886 126.999 38.3438ZM121.282 54.1719C121.06 54.3939 120.937 54.6951 120.939 55.0091C120.941 55.3227 121.069 55.6225 121.294 55.8409L126.317 60.722C126.771 61.1816 126.766 61.9195 126.313 62.3718L93.2317 95.3119C92.7744 95.7692 92.0305 95.7692 91.5737 95.3119L86.3763 90.1149C86.1519 89.8902 85.8517 89.7716 85.5477 89.7716C85.3792 89.7716 85.2094 89.8078 85.0501 89.8824C82.7965 90.9398 80.0903 90.4578 78.3164 88.6826C76.5412 86.9088 76.0592 84.2029 77.1166 81.9494C77.3263 81.5021 77.2338 80.972 76.8845 80.6228L71.6876 75.4258C71.2302 74.9685 71.2302 74.2251 71.6889 73.7659L104.626 40.6875C105.082 40.2321 105.819 40.2293 106.278 40.6825L111.158 45.7051C111.596 46.1555 112.345 46.1995 112.828 45.7174C114.834 43.7106 117.975 43.4964 120.289 45.0532L118.57 46.7721C117.263 46.1496 115.649 46.378 114.569 47.4583C113.198 48.8293 113.198 51.06 114.569 52.4305C115.942 53.8043 118.167 53.8047 119.541 52.4305C120.646 51.3255 120.84 49.7045 120.229 48.4278L121.947 46.7094C123.492 48.9964 123.314 52.1403 121.282 54.1719ZM117.884 49.1154C118.341 49.5727 118.343 50.3143 117.884 50.7734C117.426 51.2312 116.684 51.2312 116.226 50.7734C115.769 50.3161 115.769 49.5723 116.226 49.1154C116.683 48.659 117.427 48.6581 117.884 49.1154Z" fill="#181818"/>
</g>
<defs>
<clipPath id="clip0_32_4522">
<rect width="60" height="59.9999" fill="white" transform="translate(69 38)"/>
</clipPath>
</defs>
</svg>
