<svg width="198" height="198" viewBox="0 0 198 198" fill="none" xmlns="http://www.w3.org/2000/svg">
<rect width="198" height="198" rx="4" fill="#F6F7FB"/>
<path d="M22.3913 116.8V128H24.2153V124.16H26.3913C29.0473 124.16 31.1753 123.328 31.1753 120.48C31.1753 117.632 29.0473 116.8 26.3913 116.8H22.3913ZM29.3193 120.48C29.3193 122.112 28.0233 122.496 26.4873 122.496H24.2153V118.464H26.4873C28.0393 118.464 29.3193 118.848 29.3193 120.48ZM39.0223 126.224V123.472C39.0223 121.152 37.6463 120.112 35.4703 120.112C34.2383 120.112 33.1343 120.416 32.5263 120.624V122.192C33.2143 121.888 34.1583 121.6 35.2943 121.6C36.6063 121.6 37.3103 122.272 37.3103 123.232V123.504C36.7023 123.376 35.9663 123.28 35.3103 123.28C33.7103 123.28 31.8863 123.888 31.8863 125.856C31.8863 127.44 33.1823 128.208 34.5743 128.208C35.7743 128.208 36.7183 127.824 37.4703 127.216C37.7423 127.84 38.3023 128.112 39.0063 128.112C39.3903 128.112 39.7743 128.048 40.0943 127.92V126.688C39.9343 126.736 39.7583 126.784 39.5823 126.784C39.2783 126.784 39.0223 126.656 39.0223 126.224ZM35.6463 124.48C36.1903 124.48 36.8463 124.576 37.3103 124.672V125.968C36.7023 126.576 35.9023 126.88 35.0863 126.88C34.3183 126.88 33.6463 126.496 33.6463 125.744C33.6463 124.784 34.6703 124.48 35.6463 124.48ZM49.0645 124.432C49.0645 122.112 47.4005 120.704 45.4645 120.704C44.2805 120.704 43.2885 121.28 42.7765 122.048C43.0005 121.168 43.4325 120.176 44.4085 119.616C46.0405 118.704 47.3045 119.072 48.3765 118.256V116.592C47.2885 117.664 45.6085 117.072 43.4005 118.432C42.0245 119.296 41.0325 120.992 41.0325 123.648C41.0325 126.736 42.7765 128.208 45.0645 128.208C47.3845 128.208 49.0645 126.864 49.0645 124.432ZM42.7605 124.464C42.7605 123.392 43.5605 122.192 45.0325 122.192C46.5685 122.192 47.3205 123.28 47.3205 124.464C47.3205 125.648 46.5685 126.736 45.0325 126.736C43.5445 126.736 42.7605 125.648 42.7605 124.464ZM50.2639 124.16C50.2639 126.816 52.2799 128.208 54.4239 128.208C56.5839 128.208 58.5839 126.816 58.5839 124.16C58.5839 121.504 56.5839 120.112 54.4239 120.112C52.2799 120.112 50.2639 121.504 50.2639 124.16ZM56.8399 124.16C56.8399 125.664 55.8479 126.64 54.4239 126.64C52.9839 126.64 51.9919 125.664 51.9919 124.16C51.9919 122.656 52.9839 121.68 54.4239 121.68C55.8479 121.68 56.8399 122.656 56.8399 124.16ZM63.6088 128V121.824H66.2488V120.32H59.2408V121.824H61.8968V128H63.6088ZM74.0379 126.224V123.472C74.0379 121.152 72.6619 120.112 70.4859 120.112C69.2539 120.112 68.1499 120.416 67.5419 120.624V122.192C68.2299 121.888 69.1739 121.6 70.3099 121.6C71.6219 121.6 72.3259 122.272 72.3259 123.232V123.504C71.7179 123.376 70.9819 123.28 70.3259 123.28C68.7259 123.28 66.9019 123.888 66.9019 125.856C66.9019 127.44 68.1979 128.208 69.5899 128.208C70.7899 128.208 71.7339 127.824 72.4859 127.216C72.7579 127.84 73.3179 128.112 74.0219 128.112C74.4059 128.112 74.7899 128.048 75.1099 127.92V126.688C74.9499 126.736 74.7739 126.784 74.5979 126.784C74.2939 126.784 74.0379 126.656 74.0379 126.224ZM70.6619 124.48C71.2059 124.48 71.8619 124.576 72.3259 124.672V125.968C71.7179 126.576 70.9179 126.88 70.1019 126.88C69.3339 126.88 68.6619 126.496 68.6619 125.744C68.6619 124.784 69.6859 124.48 70.6619 124.48ZM75.9201 124.16C75.9201 126.864 77.9201 128.208 80.2721 128.208C81.3441 128.208 82.3201 128.016 83.0241 127.68V126.208C82.3681 126.528 81.5201 126.752 80.5921 126.752C79.1841 126.752 77.8401 126.176 77.6481 124.8H83.4241C83.9201 122.576 82.8641 120.112 79.8081 120.112C78.0321 120.112 75.9201 121.376 75.9201 124.16ZM81.8881 123.52H77.6321C77.6961 122.224 78.7361 121.536 79.8881 121.536C81.5681 121.536 81.9841 122.848 81.8881 123.52ZM86.7825 128V122.8L88.9585 126.16H89.9825L92.1745 122.8V128H93.8225V120.32H92.0945L89.4705 124.368L86.8625 120.32H85.1345V128H86.7825ZM101.456 128V124.912H105.296V128H107.008V120.32H105.296V123.408H101.456V120.32H99.7439V128H101.456ZM115.694 126.224V123.472C115.694 121.152 114.318 120.112 112.142 120.112C110.91 120.112 109.806 120.416 109.198 120.624V122.192C109.886 121.888 110.83 121.6 111.966 121.6C113.278 121.6 113.982 122.272 113.982 123.232V123.504C113.374 123.376 112.638 123.28 111.982 123.28C110.382 123.28 108.558 123.888 108.558 125.856C108.558 127.44 109.854 128.208 111.246 128.208C112.446 128.208 113.39 127.824 114.142 127.216C114.414 127.84 114.974 128.112 115.678 128.112C116.062 128.112 116.446 128.048 116.766 127.92V126.688C116.606 126.736 116.43 126.784 116.254 126.784C115.95 126.784 115.694 126.656 115.694 126.224ZM112.318 124.48C112.862 124.48 113.518 124.576 113.982 124.672V125.968C113.374 126.576 112.574 126.88 111.758 126.88C110.99 126.88 110.318 126.496 110.318 125.744C110.318 124.784 111.342 124.48 112.318 124.48ZM119.768 128V121.824H123.608V128H125.32V120.32H118.056V128H119.768ZM128.983 121.52V120.32H127.463V131.52H129.175V127.008C129.703 127.616 130.599 128.208 131.943 128.208C134.247 128.208 135.751 126.368 135.751 124.16C135.751 121.952 134.247 120.112 131.943 120.112C130.503 120.112 129.591 120.784 128.983 121.52ZM134.007 124.16C134.007 125.664 133.015 126.704 131.623 126.704C130.439 126.704 129.543 125.936 129.175 125.088V123.216C129.543 122.384 130.439 121.616 131.623 121.616C133.015 121.616 134.007 122.656 134.007 124.16ZM138.633 128L140.537 125.488H142.281V128H143.993V120.32H140.025C138.105 120.32 137.065 121.52 137.065 122.912C137.065 123.968 137.657 124.912 138.777 125.296L136.665 128H138.633ZM138.809 122.928C138.809 122.176 139.369 121.744 140.313 121.744H142.281V124.112H140.313C139.369 124.112 138.809 123.68 138.809 122.928ZM147.783 128V122.8L149.959 126.16H150.983L153.175 122.8V128H154.823V120.32H153.095L150.471 124.368L147.863 120.32H146.135V128H147.783ZM160.419 126.112L157.827 120.32H156.003L159.651 128.064L159.491 128.448C159.043 129.648 158.419 130.24 157.587 130.24C157.331 130.24 157.059 130.208 156.803 130.128V131.584C157.139 131.664 157.475 131.712 157.811 131.712C158.979 131.712 160.067 131.04 160.899 129.04L164.499 120.32H162.707L160.419 126.112ZM177.375 124.16C177.375 121.504 175.375 120.112 173.215 120.112C171.311 120.112 169.471 121.264 169.151 123.44H167.487V120.32H165.775V128H167.487V124.88H169.151C169.471 127.056 171.311 128.208 173.215 128.208C175.375 128.208 177.375 126.816 177.375 124.16ZM170.783 124.16C170.783 122.656 171.759 121.632 173.215 121.632C174.671 121.632 175.631 122.656 175.631 124.16C175.631 125.664 174.671 126.688 173.215 126.688C171.759 126.688 170.783 125.664 170.783 124.16ZM25.0139 148.224C25.0139 150.96 27.1099 152.208 29.1579 152.208C30.1339 152.208 30.9659 152.032 31.7019 151.68V150.096C31.0939 150.448 30.2779 150.688 29.4619 150.688C28.0859 150.688 26.7579 149.904 26.7579 148.16C26.7579 146.352 28.1339 145.632 29.4939 145.632C30.2779 145.632 31.0619 145.872 31.6219 146.272V144.704C30.9499 144.304 30.1179 144.112 29.2539 144.112C27.2059 144.112 25.0139 145.36 25.0139 148.224ZM38.909 152V145.824H42.749V152H44.461V144.32H37.197V152H38.909ZM48.1233 145.52V144.32H46.6033V155.52H48.3153V151.008C48.8433 151.616 49.7393 152.208 51.0833 152.208C53.3873 152.208 54.8913 150.368 54.8913 148.16C54.8913 145.952 53.3873 144.112 51.0833 144.112C49.6432 144.112 48.7313 144.784 48.1233 145.52ZM53.1473 148.16C53.1473 149.664 52.1553 150.704 50.7633 150.704C49.5793 150.704 48.6833 149.936 48.3153 149.088V147.216C48.6833 146.384 49.5793 145.616 50.7633 145.616C52.1553 145.616 53.1473 146.656 53.1473 148.16ZM56.0764 148.16C56.0764 150.816 58.0924 152.208 60.2364 152.208C62.3964 152.208 64.3964 150.816 64.3964 148.16C64.3964 145.504 62.3964 144.112 60.2364 144.112C58.0924 144.112 56.0764 145.504 56.0764 148.16ZM62.6524 148.16C62.6524 149.664 61.6604 150.64 60.2364 150.64C58.7964 150.64 57.8044 149.664 57.8044 148.16C57.8044 146.656 58.7964 145.68 60.2364 145.68C61.6604 145.68 62.6524 146.656 62.6524 148.16ZM67.5284 152L71.6404 146.976V152H73.3524V144.32H71.8804L67.7684 149.344V144.32H66.0564V152H67.5284ZM81.5099 149.904C81.5099 148.944 80.8699 148.304 79.9899 148.064C80.7899 147.856 81.3499 147.264 81.3499 146.352C81.3499 145.104 80.3579 144.096 77.9899 144.096C76.9339 144.096 75.9099 144.352 75.1739 144.704V146.176C75.8299 145.824 76.8859 145.552 77.7819 145.552C78.8859 145.552 79.6219 145.888 79.6219 146.576C79.6219 147.216 78.9979 147.44 78.1819 147.44H76.6139V148.752H78.1819C78.9499 148.752 79.7819 148.88 79.7819 149.696C79.7819 150.544 78.8219 150.752 77.6859 150.752C76.7579 150.752 75.6539 150.464 75.0299 150.112V151.584C75.7339 151.952 76.7579 152.208 77.9099 152.208C80.2779 152.208 81.5099 151.248 81.5099 149.904ZM87.7403 152C89.5163 152 90.2683 151.072 90.2683 149.888C90.2683 148.944 89.6763 148.336 88.9563 148.112C89.6123 147.824 90.0443 147.216 90.0443 146.368C90.0443 145.168 89.1643 144.32 87.6123 144.32H83.2283V152H87.7403ZM84.9403 148.736H87.3563C87.9483 148.736 88.5403 148.944 88.5403 149.728C88.5403 150.464 88.0283 150.704 87.3243 150.704H84.9403V148.736ZM84.9403 145.616H87.2283C87.7563 145.616 88.3163 145.84 88.3163 146.592C88.3163 147.28 87.8363 147.52 87.2283 147.52H84.9403V145.616ZM91.5139 148.16C91.5139 150.816 93.5299 152.208 95.6739 152.208C97.8339 152.208 99.8339 150.816 99.8339 148.16C99.8339 145.504 97.8339 144.112 95.6739 144.112C93.5299 144.112 91.5139 145.504 91.5139 148.16ZM98.0899 148.16C98.0899 149.664 97.0979 150.64 95.6739 150.64C94.2339 150.64 93.2419 149.664 93.2419 148.16C93.2419 146.656 94.2339 145.68 95.6739 145.68C97.0979 145.68 98.0899 146.656 98.0899 148.16ZM102.234 154.064V152H108.41V154.064H110.026V150.592H108.89V144.32H102.89C102.922 146.992 102.602 148.944 101.674 150.592H100.618V154.064H102.234ZM104.49 145.728H107.162V150.592H103.466C104.106 149.232 104.426 147.792 104.49 145.728ZM113.06 152L117.172 146.976V152H118.884V144.32H117.412L113.3 149.344V144.32H111.588V152H113.06ZM124.593 152V145.824H127.233V144.32H120.225V145.824H122.881V152H124.593ZM127.889 148.16C127.889 150.864 129.889 152.208 132.241 152.208C133.313 152.208 134.289 152.016 134.993 151.68V150.208C134.337 150.528 133.489 150.752 132.561 150.752C131.153 150.752 129.809 150.176 129.617 148.8H135.393C135.889 146.576 134.833 144.112 131.777 144.112C130.001 144.112 127.889 145.376 127.889 148.16ZM133.857 147.52H129.601C129.665 146.224 130.705 145.536 131.857 145.536C133.537 145.536 133.953 146.848 133.857 147.52ZM140.159 145.776H142.751V152H144.463V144.32H138.543C138.399 148.128 138.047 150.688 136.751 150.688C136.591 150.688 136.431 150.656 136.255 150.592V151.936C136.639 152.08 136.991 152.144 137.311 152.144C139.359 152.144 139.935 149.488 140.159 145.776ZM147.883 152L149.787 149.488H151.531V152H153.243V144.32H149.275C147.355 144.32 146.315 145.52 146.315 146.912C146.315 147.968 146.907 148.912 148.027 149.296L145.915 152H147.883ZM148.059 146.928C148.059 146.176 148.619 145.744 149.563 145.744H151.531V148.112H149.563C148.619 148.112 148.059 147.68 148.059 146.928ZM157.033 152V146.8L159.209 150.16H160.233L162.425 146.8V152H164.073V144.32H162.345L159.721 148.368L157.113 144.32H155.385V152H157.033ZM167.685 152L171.797 146.976V152H173.509V144.32H172.037L167.925 149.344V144.32H166.213V152H167.685Z" fill="#181818"/>
<path d="M119.003 77.5329H110.659V58.9095C110.659 58.2494 110.123 57.7144 109.463 57.7144H88.5366C87.8766 57.7144 87.3414 58.2494 87.3414 58.9095V77.5329H78.9967C73.4845 77.5329 69 82.0175 69 87.5296C69 93.0417 73.4845 97.5263 78.9967 97.5263H119.003C124.515 97.5263 129 93.0419 129 87.5296C129 82.0174 124.515 77.5329 119.003 77.5329ZM97.6606 60.1047H100.339V66.3311H97.6606V60.1047ZM89.7318 60.1047H95.2701V67.5263C95.2701 68.1864 95.8053 68.7215 96.4653 68.7215H101.534C102.194 68.7215 102.73 68.1864 102.73 67.5263V60.1047H108.268V77.5329H89.7318V60.1047ZM119.003 95.1359H78.9967C74.8025 95.1359 71.3904 91.7237 71.3904 87.5296C71.3904 83.3355 74.8025 79.9233 78.9967 79.9233H119.003C123.197 79.9233 126.609 83.3355 126.609 87.5296C126.609 91.7236 123.197 95.1359 119.003 95.1359Z" fill="#181818"/>
<path d="M89.1173 83.2649C86.7998 83.2649 84.9143 85.1503 84.9143 87.4678C84.9143 89.7853 86.7997 91.6709 89.1173 91.6709C91.4348 91.6709 93.3203 89.7854 93.3203 87.4678C93.3203 85.1504 91.4348 83.2649 89.1173 83.2649ZM89.1173 89.2805C88.1179 89.2805 87.3048 88.4673 87.3048 87.4679C87.3048 86.4686 88.118 85.6554 89.1173 85.6554C90.1167 85.6554 90.9299 86.4686 90.9299 87.4679C90.9299 88.4673 90.117 89.2805 89.1173 89.2805Z" fill="#181818"/>
<path d="M79.2347 83.2649C76.9172 83.2649 75.0317 85.1503 75.0317 87.4678C75.0317 89.7853 76.9172 91.6709 79.2347 91.6709C81.5522 91.6709 83.4376 89.7854 83.4376 87.4678C83.4376 85.1504 81.5522 83.2649 79.2347 83.2649ZM79.2347 89.2805C78.2352 89.2805 77.4221 88.4673 77.4221 87.4679C77.4221 86.4686 78.2353 85.6554 79.2347 85.6554C80.234 85.6554 81.0472 86.4686 81.0472 87.4679C81.0472 88.4673 80.234 89.2805 79.2347 89.2805Z" fill="#399A3A"/>
<path d="M98.9998 83.2649C96.6823 83.2649 94.7969 85.1503 94.7969 87.4678C94.7969 89.7853 96.6823 91.6709 98.9998 91.6709C101.317 91.6709 103.203 89.7854 103.203 87.4678C103.203 85.1504 101.317 83.2649 98.9998 83.2649ZM98.9998 89.2805C98.0003 89.2805 97.1873 88.4673 97.1873 87.4679C97.1873 86.4686 98.0004 85.6554 98.9998 85.6554C99.9992 85.6554 100.812 86.4686 100.812 87.4679C100.812 88.4673 99.9993 89.2805 98.9998 89.2805Z" fill="#399A3A"/>
<path d="M108.883 83.2649C106.565 83.2649 104.68 85.1503 104.68 87.4678C104.68 89.7853 106.565 91.6709 108.883 91.6709C111.2 91.6709 113.086 89.7854 113.086 87.4678C113.086 85.1504 111.2 83.2649 108.883 83.2649ZM108.883 89.2805C107.883 89.2805 107.07 88.4673 107.07 87.4679C107.07 86.4686 107.883 85.6554 108.883 85.6554C109.882 85.6554 110.695 86.4686 110.695 87.4679C110.695 88.4673 109.882 89.2805 108.883 89.2805Z" fill="#181818"/>
<path d="M118.765 83.2649C116.448 83.2649 114.562 85.1503 114.562 87.4678C114.562 89.7853 116.447 91.6709 118.765 91.6709C121.083 91.6709 122.968 89.7854 122.968 87.4678C122.968 85.1504 121.083 83.2649 118.765 83.2649ZM118.765 89.2805C117.766 89.2805 116.953 88.4673 116.953 87.4679C116.953 86.4686 117.766 85.6554 118.765 85.6554C119.764 85.6554 120.578 86.4686 120.578 87.4679C120.578 88.4673 119.765 89.2805 118.765 89.2805Z" fill="#399A3A"/>
<path d="M105.586 73.7168H105.032C104.372 73.7168 103.837 74.2519 103.837 74.912C103.837 75.5721 104.372 76.1072 105.032 76.1072H105.586C106.246 76.1072 106.781 75.5721 106.781 74.912C106.781 74.2519 106.246 73.7168 105.586 73.7168Z" fill="#399A3A"/>
<path d="M101.339 73.7168H92.4142C91.7542 73.7168 91.219 74.2519 91.219 74.912C91.219 75.5721 91.7542 76.1072 92.4142 76.1072H101.339C101.999 76.1072 102.534 75.5721 102.534 74.912C102.534 74.2519 101.999 73.7168 101.339 73.7168Z" fill="#399A3A"/>
</svg>
