<svg width="41" height="36" viewBox="0 0 41 36" fill="none" xmlns="http://www.w3.org/2000/svg">
<path d="M9.66568 25.3948H9.66705C9.6682 25.3948 9.66934 25.3945 9.67049 25.3945H25.6055C25.9978 25.3945 26.3427 25.1343 26.4505 24.7571L29.9661 12.4524C30.0419 12.1871 29.9888 11.902 29.8228 11.6818C29.6567 11.4616 29.3969 11.332 29.1211 11.332H7.6387L7.01042 8.50466C6.92093 8.10252 6.56433 7.81641 6.15234 7.81641H0.878906C0.393448 7.81641 0 8.20986 0 8.69532C0 9.18078 0.393448 9.57423 0.878906 9.57423H5.44739C5.55862 10.0752 8.45398 23.1046 8.6206 23.8542C7.68654 24.2602 7.03125 25.1915 7.03125 26.2734C7.03125 27.7273 8.21411 28.9102 9.66797 28.9102H25.6055C26.0909 28.9102 26.4844 28.5167 26.4844 28.0313C26.4844 27.5458 26.0909 27.1524 25.6055 27.1524H9.66797C9.18342 27.1524 8.78906 26.758 8.78906 26.2734C8.78906 25.7896 9.18205 25.3959 9.66568 25.3948ZM27.9559 13.0899L24.9424 23.6367H10.3729L8.02917 13.0899H27.9559Z" fill="#181818"/>
<path d="M8.78903 31.5469C8.78903 33.0007 9.9719 34.1836 11.4258 34.1836C12.8796 34.1836 14.0625 33.0007 14.0625 31.5469C14.0625 30.093 12.8796 28.9102 11.4258 28.9102C9.9719 28.9102 8.78903 30.093 8.78903 31.5469ZM11.4258 30.668C11.9103 30.668 12.3047 31.0623 12.3047 31.5469C12.3047 32.0314 11.9103 32.4258 11.4258 32.4258C10.9412 32.4258 10.5468 32.0314 10.5468 31.5469C10.5468 31.0623 10.9412 30.668 11.4258 30.668Z" fill="#181818"/>
<path d="M21.2109 31.5469C21.2109 33.0007 22.3938 34.1836 23.8476 34.1836C25.3015 34.1836 26.4844 33.0007 26.4844 31.5469C26.4844 30.093 25.3015 28.9102 23.8476 28.9102C22.3938 28.9102 21.2109 30.093 21.2109 31.5469ZM23.8476 30.668C24.3322 30.668 24.7265 31.0623 24.7265 31.5469C24.7265 32.0314 24.3322 32.4258 23.8476 32.4258C23.3631 32.4258 22.9687 32.0314 22.9687 31.5469C22.9687 31.0623 23.3631 30.668 23.8476 30.668Z" fill="#181818"/>
<rect x="18" width="23" height="16" rx="8" fill="#ED0000"/>
<path d="M26.6738 12H25.2559V5.15039L23.1641 5.86523V4.66406L26.4922 3.43945H26.6738V12ZM35.1992 8.4082C35.1992 9.63477 34.9688 10.5605 34.5078 11.1855C34.0508 11.8066 33.3535 12.1172 32.416 12.1172C31.4941 12.1172 30.7988 11.8145 30.3301 11.209C29.8652 10.5996 29.627 9.69922 29.6152 8.50781V7.03125C29.6152 5.80469 29.8438 4.88477 30.3008 4.27148C30.7617 3.6582 31.4629 3.35156 32.4043 3.35156C33.3379 3.35156 34.0332 3.65039 34.4902 4.24805C34.9512 4.8457 35.1875 5.74023 35.1992 6.93164V8.4082ZM33.7754 6.81445C33.7754 6.01367 33.666 5.42773 33.4473 5.05664C33.2285 4.68164 32.8809 4.49414 32.4043 4.49414C31.9395 4.49414 31.5977 4.67188 31.3789 5.02734C31.1602 5.37891 31.0449 5.92969 31.0332 6.67969V8.61328C31.0332 9.41016 31.1445 10.0039 31.3672 10.3945C31.5898 10.7852 31.9395 10.9805 32.416 10.9805C32.873 10.9805 33.2109 10.8008 33.4297 10.4414C33.6484 10.0781 33.7637 9.51172 33.7754 8.74219V6.81445Z" fill="white"/>
</svg>
