<svg width="42" height="36" viewBox="0 0 42 36" fill="none" xmlns="http://www.w3.org/2000/svg">
<g clip-path="url(#clip0_32_2650)">
<path d="M27.5768 10.2612C26.0059 8.69032 23.9262 7.83172 21.7066 7.83172C19.487 7.83172 17.4009 8.69668 15.83 10.2676L15.0095 11.088L14.1764 10.2549C12.6055 8.68396 10.5131 7.81264 8.29342 7.81264C6.08016 7.81264 3.99409 8.6776 2.42954 10.2421C0.858629 11.8131 -0.00632514 13.8991 3.48253e-05 16.1188C3.48253e-05 18.3384 0.871349 20.4181 2.44226 21.989L14.3863 33.933C14.5516 34.0984 14.7742 34.1874 14.9905 34.1874C15.2067 34.1874 15.4293 34.1047 15.5947 33.9394L27.5641 22.0144C29.135 20.4435 30 18.3575 30 16.1378C30.0063 13.9182 29.1477 11.8321 27.5768 10.2612ZM26.3557 20.7997L14.9905 32.1204L3.65065 20.7806C2.4041 19.5341 1.71722 17.8805 1.71722 16.1188C1.71722 14.357 2.39774 12.7035 3.64429 11.4633C4.88448 10.2231 6.53807 9.53619 8.29342 9.53619C10.0551 9.53619 11.7151 10.2231 12.9616 11.4696L14.399 12.907C14.7361 13.2441 15.2767 13.2441 15.6137 12.907L17.0384 11.4823C18.2849 10.2358 19.9449 9.54891 21.7002 9.54891C23.4556 9.54891 25.1092 10.2358 26.3557 11.476C27.6023 12.7225 28.2828 14.3761 28.2828 16.1378C28.2891 17.8995 27.6023 19.5531 26.3557 20.7997Z" fill="#181818"/>
</g>
<rect x="19" width="23" height="16" rx="8" fill="#ED0000"/>
<path d="M32.4551 8.95898H33.5156V10.1016H32.4551V12H31.0312V10.1016H27.3457L27.3047 9.23438L30.9844 3.46875H32.4551V8.95898ZM28.7988 8.95898H31.0312V5.39648L30.9258 5.58398L28.7988 8.95898Z" fill="white"/>
<defs>
<clipPath id="clip0_32_2650">
<rect width="30" height="30" fill="white" transform="translate(0 6)"/>
</clipPath>
</defs>
</svg>
